%TF.GenerationSoftware,Altium Limited,Altium Designer,24.9.1 (31)*%
G04 Layer_Color=8421504*
%FSLAX45Y45*%
%MOMM*%
%TF.SameCoordinates,93858F84-5B26-42CC-8C8E-0B90E3909A9F*%
%TF.FilePolarity,Positive*%
%TF.FileFunction,Paste,Top*%
%TF.Part,Single*%
G01*
G75*
%TA.AperFunction,SMDPad,CuDef*%
%ADD10R,2.40000X0.80000*%
%ADD11R,2.40000X0.70000*%
D10*
X13325998Y8005999D02*
D03*
Y7107001D02*
D03*
X12446000D02*
D03*
Y8005999D02*
D03*
X7551999Y8577499D02*
D03*
Y7678501D02*
D03*
X6672001D02*
D03*
Y8577499D02*
D03*
D11*
X13325998Y7874000D02*
D03*
Y7747000D02*
D03*
Y7620000D02*
D03*
Y7493000D02*
D03*
Y7366000D02*
D03*
Y7239000D02*
D03*
X12446000D02*
D03*
Y7366000D02*
D03*
Y7493000D02*
D03*
Y7620000D02*
D03*
Y7747000D02*
D03*
Y7874000D02*
D03*
X7551999Y8445500D02*
D03*
Y8318500D02*
D03*
Y8191500D02*
D03*
Y8064500D02*
D03*
Y7937500D02*
D03*
Y7810500D02*
D03*
X6672001D02*
D03*
Y7937500D02*
D03*
Y8064500D02*
D03*
Y8191500D02*
D03*
Y8318500D02*
D03*
Y8445500D02*
D03*
%TF.MD5,3696ee943ac133df5dd994f009c17a02*%
M02*
