%TF.GenerationSoftware,Altium Limited,Altium Designer,24.9.1 (31)*%
G04 Layer_Color=16711935*
%FSLAX45Y45*%
%MOMM*%
%TF.SameCoordinates,93858F84-5B26-42CC-8C8E-0B90E3909A9F*%
%TF.FilePolarity,Negative*%
%TF.FileFunction,Soldermask,Bot*%
%TF.Part,Single*%
G01*
G75*
%TA.AperFunction,ComponentPad*%
%ADD18C,2.00000*%
%ADD19R,2.00000X2.00000*%
%TA.AperFunction,ViaPad*%
%ADD36C,1.72720*%
%TA.AperFunction,ComponentPad*%
%ADD37C,3.00320*%
%ADD38C,2.08280*%
%ADD39R,2.08280X2.08280*%
%ADD40C,1.98120*%
%ADD41R,1.98120X1.98120*%
%ADD42C,2.30320*%
%ADD43C,4.66320*%
%ADD44C,1.60320*%
%ADD45R,1.60320X1.60320*%
%ADD46R,2.00320X1.90320*%
%ADD47O,2.00320X1.90320*%
%ADD48R,1.98120X1.98120*%
%ADD49C,1.80320*%
%ADD50R,1.80320X1.80320*%
%TA.AperFunction,ViaPad*%
%ADD51C,1.47320*%
D18*
X11049000Y8763000D02*
D03*
Y9017000D02*
D03*
Y9271000D02*
D03*
Y9525000D02*
D03*
Y9779000D02*
D03*
Y10033000D02*
D03*
Y10287000D02*
D03*
Y10541000D02*
D03*
Y10795000D02*
D03*
Y11049000D02*
D03*
Y11303000D02*
D03*
Y11557000D02*
D03*
Y11811000D02*
D03*
Y12065000D02*
D03*
Y12319000D02*
D03*
X13335001D02*
D03*
Y12065000D02*
D03*
Y11811000D02*
D03*
Y11557000D02*
D03*
Y11303000D02*
D03*
Y11049000D02*
D03*
Y10795000D02*
D03*
Y10541000D02*
D03*
Y10287000D02*
D03*
Y10033000D02*
D03*
Y9779000D02*
D03*
Y9525000D02*
D03*
Y9271000D02*
D03*
Y9017000D02*
D03*
D19*
Y8763000D02*
D03*
D36*
X13639799Y12065000D02*
D03*
Y12319000D02*
D03*
D37*
X10548000Y9144000D02*
D03*
Y12243999D02*
D03*
X3048000Y9144000D02*
D03*
Y12243999D02*
D03*
D38*
X7408001D02*
D03*
X7154001D02*
D03*
X6900001D02*
D03*
X6646001D02*
D03*
X6392001D02*
D03*
X6138001D02*
D03*
X5884001D02*
D03*
X5630001D02*
D03*
X5376001D02*
D03*
X5122001D02*
D03*
X4868001D02*
D03*
X4614001D02*
D03*
X4360001D02*
D03*
X4106001D02*
D03*
X3852001D02*
D03*
D39*
X3598001D02*
D03*
D40*
X9144000Y7423998D02*
D03*
X13068300Y10533802D02*
D03*
X12306300Y9887798D02*
D03*
X12700000Y10787802D02*
D03*
X9779000Y7423998D02*
D03*
X11684000D02*
D03*
X11049000D02*
D03*
X10414000D02*
D03*
X6350000Y7042998D02*
D03*
X5010998Y7874000D02*
D03*
Y7366000D02*
D03*
Y7620000D02*
D03*
D41*
X9144000Y8324002D02*
D03*
X13068300Y9633798D02*
D03*
X12306300Y10787802D02*
D03*
X12700000Y9887798D02*
D03*
X9779000Y8324002D02*
D03*
X11684000D02*
D03*
X11049000D02*
D03*
X10414000D02*
D03*
X6350000Y7943002D02*
D03*
D42*
X4340103Y8572500D02*
D03*
X3840099D02*
D03*
X3340100D02*
D03*
X4090101Y6822501D02*
D03*
X3590102D02*
D03*
D43*
X4580103Y7522500D02*
D03*
X3100100D02*
D03*
D44*
X11684000Y6858000D02*
D03*
X9144000D02*
D03*
X9779000D02*
D03*
X10414000D02*
D03*
X11049000D02*
D03*
D45*
X11684000Y7112000D02*
D03*
X9144000D02*
D03*
X9779000D02*
D03*
X10414000D02*
D03*
X11049000D02*
D03*
D46*
X5207000Y8509000D02*
D03*
D47*
X5461000Y8763000D02*
D03*
X5715000Y8509000D02*
D03*
D48*
X5911002Y7874000D02*
D03*
Y7366000D02*
D03*
Y7620000D02*
D03*
D49*
X7239000Y6985000D02*
D03*
D50*
X6985000D02*
D03*
D51*
X13335001Y8255000D02*
D03*
X6621780Y7459980D02*
D03*
X12141200Y8356600D02*
D03*
X12090400Y6990080D02*
D03*
X6908800Y11506200D02*
D03*
X6654800D02*
D03*
X6400800D02*
D03*
X6146800D02*
D03*
X5740400Y11379200D02*
D03*
X5613400Y11252200D02*
D03*
X5486400Y11125200D02*
D03*
X7803358Y8763000D02*
D03*
%TF.MD5,7d85bc816c8e10eca4f574ce8143bbcd*%
M02*
