%TF.GenerationSoftware,Altium Limited,Altium Designer,24.9.1 (31)*%
G04 Layer_Color=0*
%FSLAX45Y45*%
%MOMM*%
%TF.SameCoordinates,93858F84-5B26-42CC-8C8E-0B90E3909A9F*%
%TF.FilePolarity,Positive*%
%TF.FileFunction,Plated,1,2,PTH,Drill*%
%TF.Part,Single*%
G01*
G75*
%TA.AperFunction,ComponentDrill*%
%ADD53C,3.00000*%
%ADD54C,1.20000*%
%TA.AperFunction,OtherDrill,Pad Free-4 (136.398mm,120.65mm)*%
%ADD55C,0.80000*%
%TA.AperFunction,OtherDrill,Pad Free-3 (136.398mm,123.19mm)*%
%ADD56C,0.80000*%
%TA.AperFunction,ComponentDrill*%
%ADD57C,0.90000*%
%ADD58C,1.50000*%
%ADD59C,0.80000*%
%ADD60C,0.90000*%
%TA.AperFunction,ViaDrill,NotFilled*%
%ADD61C,0.70000*%
D53*
X4580103Y7522500D02*
D03*
X3100100D02*
D03*
D54*
X7408001Y12243999D02*
D03*
X7154001D02*
D03*
X6900001D02*
D03*
X6646001D02*
D03*
X6392001D02*
D03*
X6138001D02*
D03*
X5884001D02*
D03*
X5630001D02*
D03*
X5376001D02*
D03*
X5122001D02*
D03*
X4868001D02*
D03*
X4614001D02*
D03*
X4360001D02*
D03*
X4106001D02*
D03*
X3852001D02*
D03*
X3598001D02*
D03*
X11049000Y8763000D02*
D03*
Y9017000D02*
D03*
Y9271000D02*
D03*
Y9525000D02*
D03*
Y9779000D02*
D03*
Y10033000D02*
D03*
Y10287000D02*
D03*
Y10541000D02*
D03*
Y10795000D02*
D03*
Y11049000D02*
D03*
Y11303000D02*
D03*
Y11557000D02*
D03*
Y11811000D02*
D03*
Y12065000D02*
D03*
Y12319000D02*
D03*
X13335001D02*
D03*
Y12065000D02*
D03*
Y11811000D02*
D03*
Y11557000D02*
D03*
Y11303000D02*
D03*
Y11049000D02*
D03*
Y10795000D02*
D03*
Y10541000D02*
D03*
Y10287000D02*
D03*
Y10033000D02*
D03*
Y9779000D02*
D03*
Y9525000D02*
D03*
Y9271000D02*
D03*
Y9017000D02*
D03*
Y8763000D02*
D03*
X7239000Y6985000D02*
D03*
X6985000D02*
D03*
D55*
X13639799Y12065000D02*
D03*
D56*
Y12319000D02*
D03*
D57*
X9144000Y7423998D02*
D03*
Y8324002D02*
D03*
X13068300Y9633798D02*
D03*
Y10533802D02*
D03*
X12306300Y10787802D02*
D03*
Y9887798D02*
D03*
X12700000D02*
D03*
Y10787802D02*
D03*
X11684000Y6858000D02*
D03*
Y7112000D02*
D03*
X9779000Y8324002D02*
D03*
Y7423998D02*
D03*
X9144000Y6858000D02*
D03*
Y7112000D02*
D03*
X9779000Y6858000D02*
D03*
Y7112000D02*
D03*
X11684000Y8324002D02*
D03*
Y7423998D02*
D03*
X11049000Y8324002D02*
D03*
Y7423998D02*
D03*
X10414000Y8324002D02*
D03*
Y7423998D02*
D03*
Y6858000D02*
D03*
Y7112000D02*
D03*
X11049000Y6858000D02*
D03*
Y7112000D02*
D03*
X6350000Y7943002D02*
D03*
Y7042998D02*
D03*
D58*
X4340103Y8572500D02*
D03*
X3840099D02*
D03*
X3340100D02*
D03*
X4090101Y6822501D02*
D03*
X3590102D02*
D03*
D59*
X5207000Y8509000D02*
D03*
X5461000Y8763000D02*
D03*
X5715000Y8509000D02*
D03*
D60*
X5911002Y7874000D02*
D03*
X5010998D02*
D03*
X5911002Y7366000D02*
D03*
X5010998D02*
D03*
X5911002Y7620000D02*
D03*
X5010998D02*
D03*
D61*
X13335001Y8255000D02*
D03*
X6621780Y7459980D02*
D03*
X12141200Y8356600D02*
D03*
X12090400Y6990080D02*
D03*
X6908800Y11506200D02*
D03*
X6654800D02*
D03*
X6400800D02*
D03*
X6146800D02*
D03*
X5740400Y11379200D02*
D03*
X5613400Y11252200D02*
D03*
X5486400Y11125200D02*
D03*
X7803358Y8763000D02*
D03*
%TF.MD5,425be2778d80dd7cbcf7d321f9624ae9*%
M02*
