%TF.GenerationSoftware,Altium Limited,Altium Designer,24.9.1 (31)*%
G04 Layer_Physical_Order=1*
G04 Layer_Color=255*
%FSLAX45Y45*%
%MOMM*%
%TF.SameCoordinates,93858F84-5B26-42CC-8C8E-0B90E3909A9F*%
%TF.FilePolarity,Positive*%
%TF.FileFunction,Copper,L1,Top,Signal*%
%TF.Part,Single*%
G01*
G75*
%TA.AperFunction,SMDPad,CuDef*%
%ADD10R,2.40000X0.80000*%
%ADD11R,2.40000X0.70000*%
%TA.AperFunction,Conductor*%
%ADD12C,0.50800*%
%ADD13C,0.40800*%
%TA.AperFunction,ViaPad*%
%ADD14C,1.52400*%
%TA.AperFunction,ComponentPad*%
%ADD15C,2.80000*%
%ADD16C,1.87960*%
%ADD17R,1.87960X1.87960*%
%ADD18C,2.00000*%
%ADD19R,2.00000X2.00000*%
%ADD20C,1.77800*%
%ADD21R,1.77800X1.77800*%
%ADD22C,2.10000*%
%ADD23C,4.46000*%
%ADD24C,1.40000*%
%ADD25R,1.40000X1.40000*%
%ADD26R,1.80000X1.70000*%
%ADD27O,1.80000X1.70000*%
%ADD28R,1.77800X1.77800*%
%ADD29C,1.60000*%
%ADD30R,1.60000X1.60000*%
%TA.AperFunction,ViaPad*%
%ADD31C,1.27000*%
G36*
X6647180Y7556279D02*
X6647370Y7549959D01*
X6647942Y7543912D01*
X6648895Y7538136D01*
X6650228Y7532633D01*
X6651942Y7527402D01*
X6654038Y7522443D01*
X6656515Y7517756D01*
X6659372Y7513341D01*
X6662610Y7509199D01*
X6666230Y7505328D01*
X6577330D01*
X6580949Y7509199D01*
X6584188Y7513341D01*
X6587045Y7517756D01*
X6589522Y7522443D01*
X6591617Y7527402D01*
X6593332Y7532633D01*
X6594665Y7538136D01*
X6595618Y7543912D01*
X6596189Y7549959D01*
X6596380Y7556279D01*
X6647180D01*
D02*
G37*
G36*
X6596380Y7588006D02*
X6596126Y7597658D01*
X6595364Y7606294D01*
X6594094Y7613914D01*
X6592316Y7620518D01*
X6590030Y7626106D01*
X6587236Y7630678D01*
X6583934Y7634234D01*
X6580124Y7636774D01*
X6575806Y7638298D01*
X6570980Y7638806D01*
X6672580D01*
X6667754Y7638298D01*
X6663436Y7636774D01*
X6659626Y7634234D01*
X6656324Y7630678D01*
X6653530Y7626106D01*
X6651244Y7620518D01*
X6649466Y7613914D01*
X6648196Y7606294D01*
X6647434Y7597658D01*
X6647180Y7588006D01*
X6596380D01*
D02*
G37*
G36*
X6523990Y8216900D02*
X6529428Y8216929D01*
X6550035Y8218329D01*
X6551466Y8218766D01*
X6552324Y8219262D01*
X6552610Y8219816D01*
Y8163184D01*
X6552324Y8163738D01*
X6551466Y8164234D01*
X6550035Y8164671D01*
X6548031Y8165050D01*
X6545455Y8165371D01*
X6538586Y8165838D01*
X6523990Y8166100D01*
Y8216900D01*
D02*
G37*
G36*
X5530857Y11037223D02*
X5526284Y11041550D01*
X5521635Y11045463D01*
X5516908Y11048962D01*
X5512104Y11052048D01*
X5507223Y11054721D01*
X5502265Y11056979D01*
X5497229Y11058824D01*
X5492117Y11060256D01*
X5486927Y11061273D01*
X5481659Y11061877D01*
X5549615Y11119194D01*
X5549369Y11113951D01*
X5549633Y11108776D01*
X5550407Y11103669D01*
X5551691Y11098629D01*
X5553486Y11093657D01*
X5555791Y11088753D01*
X5558606Y11083916D01*
X5561931Y11079146D01*
X5565766Y11074444D01*
X5570111Y11069810D01*
X5530857Y11037223D01*
D02*
G37*
G36*
X5663533Y11166146D02*
X5658930Y11170480D01*
X5654249Y11174352D01*
X5649492Y11177762D01*
X5644658Y11180711D01*
X5639746Y11183197D01*
X5634758Y11185222D01*
X5629693Y11186785D01*
X5624551Y11187886D01*
X5619331Y11188526D01*
X5614035Y11188703D01*
X5676897Y11251565D01*
X5677074Y11246269D01*
X5677714Y11241049D01*
X5678815Y11235907D01*
X5680378Y11230842D01*
X5682403Y11225854D01*
X5684889Y11220942D01*
X5687838Y11216108D01*
X5691248Y11211351D01*
X5695120Y11206670D01*
X5699454Y11202067D01*
X5663533Y11166146D01*
D02*
G37*
G36*
X5790533Y11293146D02*
X5785930Y11297480D01*
X5781249Y11301352D01*
X5776492Y11304762D01*
X5771658Y11307711D01*
X5766746Y11310197D01*
X5761758Y11312222D01*
X5756693Y11313785D01*
X5751551Y11314886D01*
X5746331Y11315526D01*
X5741035Y11315703D01*
X5803897Y11378565D01*
X5804074Y11373269D01*
X5804714Y11368049D01*
X5805815Y11362907D01*
X5807378Y11357842D01*
X5809403Y11352854D01*
X5811889Y11347942D01*
X5814838Y11343108D01*
X5818248Y11338351D01*
X5822120Y11333670D01*
X5826454Y11329067D01*
X5790533Y11293146D01*
D02*
G37*
G36*
X6121400Y11409901D02*
X6121209Y11416221D01*
X6120638Y11422268D01*
X6119685Y11428044D01*
X6118352Y11433547D01*
X6116638Y11438778D01*
X6114542Y11443737D01*
X6112065Y11448424D01*
X6109208Y11452839D01*
X6105969Y11456981D01*
X6102350Y11460852D01*
X6191250D01*
X6187630Y11456981D01*
X6184392Y11452839D01*
X6181534Y11448424D01*
X6179058Y11443737D01*
X6176962Y11438778D01*
X6175248Y11433547D01*
X6173914Y11428044D01*
X6172962Y11422268D01*
X6172390Y11416221D01*
X6172200Y11409901D01*
X6121400D01*
D02*
G37*
G36*
X6375400D02*
X6375209Y11416221D01*
X6374638Y11422268D01*
X6373685Y11428044D01*
X6372352Y11433547D01*
X6370638Y11438778D01*
X6368542Y11443737D01*
X6366065Y11448424D01*
X6363208Y11452839D01*
X6359969Y11456981D01*
X6356350Y11460852D01*
X6445250D01*
X6441630Y11456981D01*
X6438392Y11452839D01*
X6435534Y11448424D01*
X6433058Y11443737D01*
X6430962Y11438778D01*
X6429248Y11433547D01*
X6427914Y11428044D01*
X6426962Y11422268D01*
X6426390Y11416221D01*
X6426200Y11409901D01*
X6375400D01*
D02*
G37*
G36*
X6629400D02*
X6629209Y11416221D01*
X6628638Y11422268D01*
X6627685Y11428044D01*
X6626352Y11433547D01*
X6624638Y11438778D01*
X6622542Y11443737D01*
X6620065Y11448424D01*
X6617208Y11452839D01*
X6613969Y11456981D01*
X6610350Y11460852D01*
X6699250D01*
X6695630Y11456981D01*
X6692392Y11452839D01*
X6689534Y11448424D01*
X6687058Y11443737D01*
X6684963Y11438778D01*
X6683248Y11433547D01*
X6681914Y11428044D01*
X6680962Y11422268D01*
X6680390Y11416221D01*
X6680200Y11409901D01*
X6629400D01*
D02*
G37*
G36*
X6949630Y11456981D02*
X6946392Y11452839D01*
X6943534Y11448424D01*
X6941058Y11443737D01*
X6938962Y11438778D01*
X6937248Y11433547D01*
X6935914Y11428044D01*
X6934962Y11422268D01*
X6934390Y11416221D01*
X6934200Y11409901D01*
X6883400D01*
X6883209Y11416221D01*
X6882638Y11422268D01*
X6881685Y11428044D01*
X6880352Y11433547D01*
X6878638Y11438778D01*
X6876542Y11443737D01*
X6874065Y11448424D01*
X6871208Y11452839D01*
X6867969Y11456981D01*
X6864350Y11460852D01*
X6953250D01*
X6949630Y11456981D01*
D02*
G37*
G36*
X7672202Y8478429D02*
X7673726Y8476849D01*
X7676266Y8475455D01*
X7679822Y8474246D01*
X7684394Y8473224D01*
X7689982Y8472387D01*
X7704206Y8471272D01*
X7722494Y8470900D01*
Y8420100D01*
X7712842Y8420007D01*
X7684394Y8417776D01*
X7679822Y8416754D01*
X7676266Y8415545D01*
X7673726Y8414151D01*
X7672202Y8412571D01*
X7671694Y8410805D01*
Y8480195D01*
X7672202Y8478429D01*
D02*
G37*
G36*
Y8351429D02*
X7673726Y8349849D01*
X7676266Y8348455D01*
X7679822Y8347246D01*
X7684394Y8346224D01*
X7689982Y8345387D01*
X7704206Y8344272D01*
X7722494Y8343900D01*
Y8293100D01*
X7712842Y8293007D01*
X7684394Y8290776D01*
X7679822Y8289754D01*
X7676266Y8288545D01*
X7673726Y8287151D01*
X7672202Y8285571D01*
X7671694Y8283805D01*
Y8353195D01*
X7672202Y8351429D01*
D02*
G37*
G36*
X9864721Y8303297D02*
X9863285Y8298628D01*
Y8293239D01*
X9864721Y8287133D01*
X9867595Y8280308D01*
X9871906Y8272764D01*
X9877653Y8264502D01*
X9884837Y8255522D01*
X9903516Y8235406D01*
X9867595Y8199486D01*
X9857178Y8209543D01*
X9838499Y8225349D01*
X9830237Y8231096D01*
X9822694Y8235406D01*
X9815869Y8238280D01*
X9809762Y8239717D01*
X9804374D01*
X9799705Y8238280D01*
X9795753Y8235406D01*
X9867595Y8307249D01*
X9864721Y8303297D01*
D02*
G37*
G36*
X9229721D02*
X9228285Y8298628D01*
Y8293239D01*
X9229721Y8287133D01*
X9232595Y8280308D01*
X9236906Y8272764D01*
X9242653Y8264502D01*
X9249837Y8255522D01*
X9268516Y8235406D01*
X9232595Y8199486D01*
X9222178Y8209543D01*
X9203499Y8225349D01*
X9195237Y8231096D01*
X9187694Y8235406D01*
X9180869Y8238280D01*
X9174762Y8239717D01*
X9169374D01*
X9164705Y8238280D01*
X9160753Y8235406D01*
X9232595Y8307249D01*
X9229721Y8303297D01*
D02*
G37*
G36*
X7432304Y7972195D02*
Y7902805D01*
X7431796Y7906395D01*
X7430272Y7909607D01*
X7427732Y7912442D01*
X7424176Y7914899D01*
X7419604Y7916977D01*
X7414016Y7918678D01*
X7407412Y7920000D01*
X7399792Y7920945D01*
X7391156Y7921512D01*
X7381504Y7921701D01*
Y7972501D01*
X7432304Y7972195D01*
D02*
G37*
G36*
X6842496Y7921701D02*
X6832844Y7921512D01*
X6816588Y7920000D01*
X6809984Y7918678D01*
X6804396Y7916977D01*
X6799824Y7914899D01*
X6796268Y7912442D01*
X6793728Y7909607D01*
X6792204Y7906395D01*
X6791696Y7902805D01*
Y7972195D01*
X6792204Y7972253D01*
X6793728Y7972305D01*
X6842496Y7972501D01*
Y7921701D01*
D02*
G37*
G36*
X7432304Y7845195D02*
Y7775805D01*
X7431796Y7779395D01*
X7430272Y7782607D01*
X7427732Y7785442D01*
X7424176Y7787899D01*
X7419604Y7789977D01*
X7414016Y7791678D01*
X7407412Y7793000D01*
X7399792Y7793945D01*
X7391156Y7794512D01*
X7381504Y7794701D01*
Y7845501D01*
X7432304Y7845195D01*
D02*
G37*
G36*
Y7718196D02*
X7432609Y7642301D01*
X7432079Y7647127D01*
X7430532Y7651445D01*
X7427966Y7655255D01*
X7424383Y7658557D01*
X7419781Y7661351D01*
X7414162Y7663637D01*
X7407524Y7665415D01*
X7399869Y7666685D01*
X7391196Y7667447D01*
X7381504Y7667701D01*
Y7718501D01*
X7432304Y7718196D01*
D02*
G37*
G36*
X13396526Y11984864D02*
X13388943Y11976184D01*
X13382254Y11967547D01*
X13376456Y11958953D01*
X13371550Y11950401D01*
X13367535Y11941891D01*
X13366101Y11938000D01*
X13367535Y11934109D01*
X13371550Y11925599D01*
X13376456Y11917047D01*
X13382254Y11908453D01*
X13388943Y11899816D01*
X13396526Y11891136D01*
X13405000Y11882414D01*
X13264999D01*
X13273474Y11891136D01*
X13281056Y11899816D01*
X13287746Y11908453D01*
X13293544Y11917047D01*
X13298450Y11925599D01*
X13302464Y11934109D01*
X13303899Y11938000D01*
X13302464Y11941891D01*
X13298450Y11950401D01*
X13293544Y11958953D01*
X13287746Y11967547D01*
X13281056Y11976184D01*
X13273474Y11984864D01*
X13264999Y11993586D01*
X13405000D01*
X13396526Y11984864D01*
D02*
G37*
G36*
X13067410Y10444906D02*
X13057336Y10444729D01*
X13047745Y10443990D01*
X13038632Y10442691D01*
X13030000Y10440830D01*
X13021849Y10438408D01*
X13014178Y10435425D01*
X13006989Y10431881D01*
X13000279Y10427776D01*
X12994051Y10423110D01*
X12988303Y10417883D01*
X12952380Y10453804D01*
X12957608Y10459552D01*
X12962276Y10465781D01*
X12966380Y10472490D01*
X12969923Y10479680D01*
X12972906Y10487350D01*
X12975328Y10495502D01*
X12977190Y10504133D01*
X12978490Y10513246D01*
X12979227Y10522839D01*
X12979405Y10532913D01*
X13067410Y10444906D01*
D02*
G37*
G36*
X12204874Y8350669D02*
X12205514Y8345449D01*
X12206615Y8340307D01*
X12208178Y8335242D01*
X12210203Y8330254D01*
X12212689Y8325342D01*
X12215638Y8320508D01*
X12219048Y8315751D01*
X12222920Y8311070D01*
X12227254Y8306467D01*
X12191333Y8270546D01*
X12186730Y8274880D01*
X12182049Y8278752D01*
X12177292Y8282162D01*
X12172458Y8285111D01*
X12167546Y8287597D01*
X12162558Y8289622D01*
X12157493Y8291185D01*
X12152351Y8292286D01*
X12147131Y8292926D01*
X12141835Y8293103D01*
X12204697Y8355965D01*
X12204874Y8350669D01*
D02*
G37*
G36*
X10502761Y8340149D02*
X10504173Y8336520D01*
X10506525Y8333318D01*
X10509818Y8330543D01*
X10514053Y8328195D01*
X10519229Y8326274D01*
X10525345Y8324780D01*
X10532403Y8323713D01*
X10540402Y8323072D01*
X10549341Y8322859D01*
Y8272059D01*
X10540402Y8271845D01*
X10532403Y8271205D01*
X10525345Y8270137D01*
X10519229Y8268643D01*
X10514053Y8266722D01*
X10509818Y8264374D01*
X10506525Y8261599D01*
X10504173Y8258397D01*
X10502761Y8254768D01*
X10502290Y8250712D01*
Y8344205D01*
X10502761Y8340149D01*
D02*
G37*
G36*
X11134721Y8303297D02*
X11133285Y8298628D01*
Y8293239D01*
X11134721Y8287133D01*
X11137595Y8280308D01*
X11141906Y8272764D01*
X11147653Y8264502D01*
X11154837Y8255522D01*
X11173516Y8235406D01*
X11137595Y8199486D01*
X11127178Y8209543D01*
X11108499Y8225349D01*
X11100237Y8231096D01*
X11092694Y8235406D01*
X11085869Y8238280D01*
X11079762Y8239717D01*
X11074374D01*
X11069705Y8238280D01*
X11065753Y8235406D01*
X11137595Y8307249D01*
X11134721Y8303297D01*
D02*
G37*
G36*
X11771509Y8235027D02*
X11770538Y8233891D01*
X11769681Y8231997D01*
X11768938Y8229344D01*
X11768309Y8225935D01*
X11767795Y8221767D01*
X11767109Y8211159D01*
X11766880Y8197520D01*
X11716080D01*
X11715955Y8204718D01*
X11714957Y8216842D01*
X11714082Y8221767D01*
X11712959Y8225935D01*
X11711585Y8229344D01*
X11709962Y8231997D01*
X11708089Y8233891D01*
X11705966Y8235027D01*
X11703594Y8235406D01*
X11772595D01*
X11771509Y8235027D01*
D02*
G37*
G36*
X12491974Y7965796D02*
X12487656Y7964272D01*
X12483846Y7961732D01*
X12480544Y7958176D01*
X12477750Y7953604D01*
X12475464Y7948016D01*
X12473686Y7941412D01*
X12473023Y7937433D01*
X12473686Y7933432D01*
X12475464Y7926788D01*
X12477750Y7921167D01*
X12480544Y7916567D01*
X12483846Y7912990D01*
X12487656Y7910435D01*
X12491974Y7908901D01*
X12496800Y7908390D01*
X12395200D01*
X12400026Y7908901D01*
X12404344Y7910435D01*
X12408154Y7912990D01*
X12411456Y7916567D01*
X12414250Y7921167D01*
X12416536Y7926788D01*
X12418314Y7933432D01*
X12418977Y7937433D01*
X12418314Y7941412D01*
X12416536Y7948016D01*
X12414250Y7953604D01*
X12411456Y7958176D01*
X12408154Y7961732D01*
X12404344Y7964272D01*
X12400026Y7965796D01*
X12395200Y7966304D01*
X12496800D01*
X12491974Y7965796D01*
D02*
G37*
G36*
X12954507Y7940548D02*
X12956032Y7931912D01*
X12958572Y7924292D01*
X12962128Y7917688D01*
X12966701Y7912100D01*
X12972289Y7907528D01*
X12978893Y7903972D01*
X12986513Y7901432D01*
X12995148Y7899908D01*
X13004800Y7899400D01*
X12928600Y7848600D01*
X12852400Y7899400D01*
X12862051Y7899908D01*
X12870688Y7901432D01*
X12878308Y7903972D01*
X12884912Y7907528D01*
X12890500Y7912100D01*
X12895071Y7917688D01*
X12898628Y7924292D01*
X12901167Y7931912D01*
X12902692Y7940548D01*
X12903200Y7950200D01*
X12953999D01*
X12954507Y7940548D01*
D02*
G37*
G36*
X13206303Y7839305D02*
X13205795Y7841071D01*
X13204271Y7842651D01*
X13201730Y7844045D01*
X13198175Y7845254D01*
X13193604Y7846276D01*
X13188016Y7847113D01*
X13173792Y7848228D01*
X13155502Y7848600D01*
Y7899400D01*
X13165155Y7899493D01*
X13193604Y7901724D01*
X13198175Y7902746D01*
X13201730Y7903955D01*
X13204271Y7905349D01*
X13205795Y7906929D01*
X13206303Y7908695D01*
Y7839305D01*
D02*
G37*
G36*
X12491974Y7838797D02*
X12487656Y7837273D01*
X12483846Y7834733D01*
X12480544Y7831177D01*
X12477750Y7826605D01*
X12475464Y7821017D01*
X12473686Y7814413D01*
X12473023Y7810434D01*
X12473686Y7806432D01*
X12475464Y7799788D01*
X12477750Y7794167D01*
X12480544Y7789567D01*
X12483846Y7785990D01*
X12487656Y7783435D01*
X12491974Y7781901D01*
X12496800Y7781390D01*
X12395200D01*
X12400026Y7781901D01*
X12404344Y7783435D01*
X12408154Y7785990D01*
X12411456Y7789567D01*
X12414250Y7794167D01*
X12416536Y7799788D01*
X12418314Y7806432D01*
X12418977Y7810434D01*
X12418314Y7814413D01*
X12416536Y7821017D01*
X12414250Y7826605D01*
X12411456Y7831177D01*
X12408154Y7834733D01*
X12404344Y7837273D01*
X12400026Y7838797D01*
X12395200Y7839305D01*
X12496800D01*
X12491974Y7838797D01*
D02*
G37*
G36*
X13206303Y7712305D02*
X13205795Y7714071D01*
X13204271Y7715651D01*
X13201730Y7717045D01*
X13198175Y7718254D01*
X13193604Y7719276D01*
X13188016Y7720113D01*
X13173792Y7721228D01*
X13155502Y7721600D01*
Y7772400D01*
X13165155Y7772493D01*
X13193604Y7774724D01*
X13198175Y7775746D01*
X13201730Y7776955D01*
X13204271Y7778349D01*
X13205795Y7779929D01*
X13206303Y7781695D01*
Y7712305D01*
D02*
G37*
G36*
X12326305Y7458305D02*
X12325797Y7460071D01*
X12324273Y7461651D01*
X12321733Y7463045D01*
X12318177Y7464254D01*
X12313605Y7465276D01*
X12308017Y7466113D01*
X12293793Y7467228D01*
X12275505Y7467600D01*
Y7518400D01*
X12285157Y7518493D01*
X12313605Y7520724D01*
X12318177Y7521746D01*
X12321733Y7522955D01*
X12324273Y7524349D01*
X12325797Y7525929D01*
X12326305Y7527695D01*
Y7458305D01*
D02*
G37*
G36*
Y7331305D02*
X12325797Y7333071D01*
X12324273Y7334651D01*
X12321733Y7336045D01*
X12318177Y7337254D01*
X12313605Y7338276D01*
X12308017Y7339113D01*
X12293793Y7340228D01*
X12275505Y7340600D01*
Y7391400D01*
X12285157Y7391493D01*
X12313605Y7393724D01*
X12318177Y7394746D01*
X12321733Y7395955D01*
X12324273Y7397349D01*
X12325797Y7398929D01*
X12326305Y7400695D01*
Y7331305D01*
D02*
G37*
G36*
Y7204305D02*
X12325797Y7206071D01*
X12324273Y7207651D01*
X12321733Y7209045D01*
X12318177Y7210254D01*
X12313605Y7211276D01*
X12308017Y7212113D01*
X12293793Y7213228D01*
X12275505Y7213600D01*
Y7264400D01*
X12285157Y7264493D01*
X12313605Y7266724D01*
X12318177Y7267746D01*
X12321733Y7268955D01*
X12324273Y7270349D01*
X12325797Y7271929D01*
X12326305Y7273695D01*
Y7204305D01*
D02*
G37*
G36*
X13206303Y7067306D02*
X13205795Y7070022D01*
X13204271Y7072452D01*
X13201730Y7074597D01*
X13198175Y7076455D01*
X13193604Y7078028D01*
X13188016Y7079314D01*
X13181412Y7080315D01*
X13173792Y7081030D01*
X13155502Y7081601D01*
Y7132401D01*
X13165155Y7132544D01*
X13181412Y7133688D01*
X13188016Y7134689D01*
X13193604Y7135975D01*
X13198175Y7137548D01*
X13201730Y7139406D01*
X13204271Y7141550D01*
X13205795Y7143980D01*
X13206303Y7146696D01*
Y7067306D01*
D02*
G37*
G36*
X12139619Y7030910D02*
X12143761Y7027672D01*
X12148176Y7024814D01*
X12152863Y7022338D01*
X12157822Y7020243D01*
X12163053Y7018528D01*
X12168556Y7017194D01*
X12174332Y7016242D01*
X12180379Y7015670D01*
X12186699Y7015480D01*
Y6964680D01*
X12180379Y6964489D01*
X12174332Y6963918D01*
X12168556Y6962965D01*
X12163053Y6961632D01*
X12157822Y6959918D01*
X12152863Y6957822D01*
X12148176Y6955345D01*
X12143761Y6952488D01*
X12139619Y6949249D01*
X12135748Y6945630D01*
Y7034530D01*
X12139619Y7030910D01*
D02*
G37*
D10*
X13325998Y8005999D02*
D03*
Y7107001D02*
D03*
X12446000D02*
D03*
Y8005999D02*
D03*
X7551999Y8577499D02*
D03*
Y7678501D02*
D03*
X6672001D02*
D03*
Y8577499D02*
D03*
D11*
X13325998Y7874000D02*
D03*
Y7747000D02*
D03*
Y7620000D02*
D03*
Y7493000D02*
D03*
Y7366000D02*
D03*
Y7239000D02*
D03*
X12446000D02*
D03*
Y7366000D02*
D03*
Y7493000D02*
D03*
Y7620000D02*
D03*
Y7747000D02*
D03*
Y7874000D02*
D03*
X7551999Y8445500D02*
D03*
Y8318500D02*
D03*
Y8191500D02*
D03*
Y8064500D02*
D03*
Y7937500D02*
D03*
Y7810500D02*
D03*
X6672001D02*
D03*
Y7937500D02*
D03*
Y8064500D02*
D03*
Y8191500D02*
D03*
Y8318500D02*
D03*
Y8445500D02*
D03*
D12*
X12448738Y8539902D02*
X12574895Y8413745D01*
X9002495Y8539902D02*
X12448738D01*
X12574895Y8413745D02*
X12574895D01*
X12769200Y7914640D02*
Y8219440D01*
X12574895Y8413745D02*
X12769200Y8219440D01*
X12614443Y7107001D02*
X12644201Y7136759D01*
X12366000Y7107001D02*
X12614443D01*
X12446000Y7747000D02*
X12614443D01*
X12644201Y7136759D02*
Y7717242D01*
X12614443Y7747000D02*
X12644201Y7717242D01*
X12446000Y7747000D02*
Y7874000D01*
X12034098Y8463702D02*
X12141200Y8356600D01*
X9034058Y8463702D02*
X12034098D01*
X8059340Y8539400D02*
X9001993D01*
X9002495Y8539902D01*
X9033556Y8463200D02*
X9034058Y8463702D01*
X8525557Y8463200D02*
X9033556D01*
X8380857Y8318500D02*
X8525557Y8463200D01*
X7965440Y8445500D02*
X8059340Y8539400D01*
X12141200Y8356600D02*
X12324801Y8172999D01*
X6146800Y11226800D02*
Y11506200D01*
Y11226800D02*
X7061200Y10312400D01*
X6400800Y11176000D02*
Y11506200D01*
Y11176000D02*
X7162800Y10414000D01*
X6654800Y11201400D02*
Y11506200D01*
Y11201400D02*
X7264400Y10591800D01*
Y8001000D02*
Y10591800D01*
X6908800Y11201400D02*
Y11506200D01*
Y11201400D02*
X7366000Y10744200D01*
Y8137601D02*
Y10744200D01*
X6804100Y8074100D02*
X6858000Y8128000D01*
Y10007600D01*
X6681601Y8074100D02*
X6804100D01*
X6672001Y8064500D02*
X6681601Y8074100D01*
X5617200Y11248400D02*
X6858000Y10007600D01*
X5661444Y8373200D02*
X6262244Y7772400D01*
X6462482D01*
X5574200Y8452750D02*
X5653750Y8373200D01*
X5661444D01*
X5574200Y8452750D02*
Y8460444D01*
X5572760Y8461884D02*
X5574200Y8460444D01*
X5572760Y8461884D02*
Y8651240D01*
X6492240Y7802158D02*
Y8159750D01*
X6462482Y7772400D02*
X6492240Y7802158D01*
X5486400Y11117600D02*
X5715000Y10889000D01*
Y8793480D02*
Y10889000D01*
X5572760Y8651240D02*
X5715000Y8793480D01*
X5486400Y11117600D02*
Y11125200D01*
X5609600Y11248400D02*
Y11252200D01*
Y11248400D02*
X5617200D01*
X5736600Y11375400D02*
Y11379200D01*
Y11375400D02*
X5744200D01*
X6959600Y8001000D02*
Y10160000D01*
X6905701Y7947101D02*
X6959600Y8001000D01*
X6681602Y7947101D02*
X6905701D01*
X7162800Y7960360D02*
Y10414000D01*
Y7960360D02*
X7303059Y7820101D01*
X7542398D01*
X7366000Y8137601D02*
X7429500Y8074101D01*
X7542398D01*
X7264400Y8001000D02*
X7318299Y7947101D01*
X7542398D01*
X7061200Y7863180D02*
Y10312400D01*
Y7863180D02*
X7231278Y7693101D01*
X7537399D01*
X6492240Y8159750D02*
X6523990Y8191500D01*
X6672001D01*
X6636380Y7678501D02*
X6672001D01*
X6621780Y7459980D02*
Y7663901D01*
X6636380Y7678501D01*
X5744200Y11375400D02*
X6959600Y10160000D01*
X11132165Y7239000D02*
X11138362Y7232802D01*
X11169802Y7201362D02*
X11640165Y6731000D01*
X10229002Y7239000D02*
X11132165D01*
X11140044Y7232802D02*
X11169802Y7203044D01*
Y7201362D02*
Y7203044D01*
X11138362Y7232802D02*
X11140044D01*
X11640165Y6731000D02*
X12446000D01*
X12822002Y7107001D01*
X11880002Y7493000D02*
X12446000D01*
X11049000Y8324002D02*
X11880002Y7493000D01*
X11741480Y8197520D02*
X12309399Y7629601D01*
X11684000Y8324002D02*
X11741480Y8266521D01*
Y8197520D02*
Y8266521D01*
X12309399Y7629601D02*
X12436399D01*
X7542398Y8074101D02*
X7551999Y8064500D01*
X6672001Y7937500D02*
X6681602Y7947101D01*
X12436399Y7629601D02*
X12446000Y7620000D01*
X12324801Y8172999D02*
X12618603D01*
X9144000Y8324002D02*
X10229002Y7239000D01*
X11592956Y6991198D02*
X11853078D01*
X11050565Y7620000D02*
X11303000Y7367565D01*
Y7281159D02*
Y7367565D01*
Y7281159D02*
X11592956Y6991198D01*
X12822002Y7107001D02*
X13325998D01*
X10795000Y7620000D02*
X11050565D01*
X10274300Y8140700D02*
X10795000Y7620000D01*
X9779000Y8324002D02*
X9962302Y8140700D01*
X10274300D01*
X10440543Y8297459D02*
X10549341D01*
X10414000Y8324002D02*
X10440543Y8297459D01*
X10549341D02*
X11607800Y7239000D01*
X11816405D01*
X11943405Y7366000D01*
X7551999Y8445500D02*
X7965440D01*
X13335001Y11811000D02*
Y12065000D01*
X7551999Y8318500D02*
X8380857D01*
X12446000Y7874000D02*
Y8005999D01*
X12249079Y6990080D02*
X12366000Y7107001D01*
X12090400Y6990080D02*
X12249079D01*
X4614001Y12243999D02*
X4617801D01*
X4868001D02*
X4871801D01*
X7537399Y7693101D02*
X7551999Y7678501D01*
X7542398Y7820101D02*
X7551999Y7810500D01*
X7542398Y7947101D02*
X7551999Y7937500D01*
X12100880Y7239000D02*
X12446000D01*
X11853078Y6991198D02*
X12100880Y7239000D01*
X11943405Y7366000D02*
X12446000D01*
X12769200Y7914640D02*
X12809840Y7874000D01*
X12618603Y8172999D02*
X12693000Y8098602D01*
Y7883078D02*
X12829079Y7747000D01*
X12693000Y7883078D02*
Y8098602D01*
X12809840Y7874000D02*
X12928600D01*
X12829079Y7747000D02*
X13325998D01*
X12928600Y7874000D02*
Y10394102D01*
Y7874000D02*
X13325998D01*
X12928600Y10394102D02*
X13068300Y10533802D01*
D13*
X8973003Y8611102D02*
X11232381D01*
X12282002Y9660723D01*
X7955758Y8610600D02*
X8972501D01*
X7803358Y8763000D02*
X7955758Y8610600D01*
X8972501D02*
X8973003Y8611102D01*
X12282002Y9660723D02*
Y9863501D01*
X5715000Y8509000D02*
X6217498Y8006502D01*
X6286500D01*
X6350000Y7943002D01*
X13325998Y8005999D02*
X13405998D01*
X13335001Y8015000D02*
Y8255000D01*
X13405998Y8005999D02*
X13420598Y8020599D01*
X13325998Y8005999D02*
X13335001Y8015000D01*
X6480099Y8308899D02*
X6662400D01*
X6413500Y8242300D02*
X6480099Y8308899D01*
X6413500Y8006502D02*
Y8242300D01*
X6350000Y7943002D02*
X6413500Y8006502D01*
X6672001Y8445500D02*
Y8577499D01*
Y8318500D02*
Y8445500D01*
X6662400Y8308899D02*
X6672001Y8318500D01*
X7551999Y8577499D02*
X7631999D01*
X7646599Y8606241D02*
X7803358Y8763000D01*
X7646599Y8592099D02*
Y8606241D01*
X7631999Y8577499D02*
X7646599Y8592099D01*
X12282002Y9863501D02*
X12306300Y9887798D01*
X13335001Y8991844D02*
Y9017000D01*
X12700000Y9887798D02*
X12763500Y9824298D01*
D14*
X13639799Y12065000D02*
D03*
Y12319000D02*
D03*
D15*
X10548000Y9144000D02*
D03*
Y12243999D02*
D03*
X3048000Y9144000D02*
D03*
Y12243999D02*
D03*
D16*
X7408001D02*
D03*
X7154001D02*
D03*
X6900001D02*
D03*
X6646001D02*
D03*
X6392001D02*
D03*
X6138001D02*
D03*
X5884001D02*
D03*
X5630001D02*
D03*
X5376001D02*
D03*
X5122001D02*
D03*
X4868001D02*
D03*
X4614001D02*
D03*
X4360001D02*
D03*
X4106001D02*
D03*
X3852001D02*
D03*
D17*
X3598001D02*
D03*
D18*
X11049000Y8763000D02*
D03*
Y9017000D02*
D03*
Y9271000D02*
D03*
Y9525000D02*
D03*
Y9779000D02*
D03*
Y10033000D02*
D03*
Y10287000D02*
D03*
Y10541000D02*
D03*
Y10795000D02*
D03*
Y11049000D02*
D03*
Y11303000D02*
D03*
Y11557000D02*
D03*
Y11811000D02*
D03*
Y12065000D02*
D03*
Y12319000D02*
D03*
X13335001D02*
D03*
Y12065000D02*
D03*
Y11811000D02*
D03*
Y11557000D02*
D03*
Y11303000D02*
D03*
Y11049000D02*
D03*
Y10795000D02*
D03*
Y10541000D02*
D03*
Y10287000D02*
D03*
Y10033000D02*
D03*
Y9779000D02*
D03*
Y9525000D02*
D03*
Y9271000D02*
D03*
Y9017000D02*
D03*
D19*
Y8763000D02*
D03*
D20*
X9144000Y7423998D02*
D03*
X13068300Y10533802D02*
D03*
X12306300Y9887798D02*
D03*
X12700000Y10787802D02*
D03*
X9779000Y7423998D02*
D03*
X11684000D02*
D03*
X11049000D02*
D03*
X10414000D02*
D03*
X6350000Y7042998D02*
D03*
X5010998Y7874000D02*
D03*
Y7366000D02*
D03*
Y7620000D02*
D03*
D21*
X9144000Y8324002D02*
D03*
X13068300Y9633798D02*
D03*
X12306300Y10787802D02*
D03*
X12700000Y9887798D02*
D03*
X9779000Y8324002D02*
D03*
X11684000D02*
D03*
X11049000D02*
D03*
X10414000D02*
D03*
X6350000Y7943002D02*
D03*
D22*
X4340103Y8572500D02*
D03*
X3840099D02*
D03*
X3340100D02*
D03*
X4090101Y6822501D02*
D03*
X3590102D02*
D03*
D23*
X4580103Y7522500D02*
D03*
X3100100D02*
D03*
D24*
X11684000Y6858000D02*
D03*
X9144000D02*
D03*
X9779000D02*
D03*
X10414000D02*
D03*
X11049000D02*
D03*
D25*
X11684000Y7112000D02*
D03*
X9144000D02*
D03*
X9779000D02*
D03*
X10414000D02*
D03*
X11049000D02*
D03*
D26*
X5207000Y8509000D02*
D03*
D27*
X5461000Y8763000D02*
D03*
X5715000Y8509000D02*
D03*
D28*
X5911002Y7874000D02*
D03*
Y7366000D02*
D03*
Y7620000D02*
D03*
D29*
X7239000Y6985000D02*
D03*
D30*
X6985000D02*
D03*
D31*
X13335001Y8255000D02*
D03*
X6621780Y7459980D02*
D03*
X12141200Y8356600D02*
D03*
X12090400Y6990080D02*
D03*
X6908800Y11506200D02*
D03*
X6654800D02*
D03*
X6400800D02*
D03*
X6146800D02*
D03*
X5740400Y11379200D02*
D03*
X5613400Y11252200D02*
D03*
X5486400Y11125200D02*
D03*
X7803358Y8763000D02*
D03*
%TF.MD5,6249e864c9874cc042996e8476dda63c*%
M02*
